<svg id="Calque_1" data-name="Calque 1" xmlns="http://www.w3.org/2000/svg" xmlns:xlink="http://www.w3.org/1999/xlink" viewBox="0 0 1366 768"><defs><style>.cls-1,.cls-10,.cls-20,.cls-3,.cls-6,.cls-7,.cls-8{fill:none;}.cls-2{clip-path:url(#clip-path);}.cls-3{stroke:#736efe;stroke-width:13px;}.cls-10,.cls-20,.cls-3,.cls-6,.cls-7,.cls-8{stroke-miterlimit:10;}.cls-3,.cls-4{isolation:isolate;opacity:0.25;}.cls-4{fill:#736efe;}.cls-5{fill:#1da4ff;}.cls-10,.cls-20,.cls-6,.cls-7,.cls-8{stroke:#fff;}.cls-6,.cls-7,.cls-8{stroke-width:1.94px;}.cls-6{stroke-dasharray:11.55 11.55;}.cls-7{stroke-dasharray:11.62 11.62;}.cls-9{fill:#f2f2f2;}.cls-10{stroke-width:0.97px;}.cls-11{fill:#fff137;}.cls-12{fill:#f55555;}.cls-13{fill:#fccf31;}.cls-14{fill:#465efb;}.cls-15{fill:#ffe592;}.cls-16{fill:#f99132;}.cls-17{fill:#abdcff;}.cls-18{fill:#2d43a0;}.cls-19{clip-path:url(#clip-path-7);}.cls-20{stroke-width:2.43px;}.cls-21{fill:#002661;}.cls-22{fill:#90f7ec;}.cls-23{fill:#ef8686;}.cls-24{fill:#b52d2d;}.cls-25{fill:#c97c1f;}.cls-26{clip-path:url(#clip-path-8);}.cls-27{fill:#fff;}.cls-28{fill:#97fff0;}.cls-29{fill:#34c6a0;}.cls-30{fill:#5efce8;}</style><clipPath id="clip-path"><path class="cls-1" d="M1361,.42H5a5,5,0,0,0-5,5V763a5,5,0,0,0,5,5H1361a5,5,0,0,0,5-5V5.38A5,5,0,0,0,1361,.42Z"/></clipPath><clipPath id="clip-path-7"><path class="cls-1" d="M846.15,522.15l-4.78,8.34a63.65,63.65,0,0,0-5.45,12.26l24.2,10.87a53.12,53.12,0,0,1,3.16-8.86l5.12-11.23Zm30.13,7.15-9.4,20.59a51.51,51.51,0,0,0-3.56,10.7h0l35.08-19.66-1.55-23.51ZM938.05,517a57.58,57.58,0,0,1-14.95-6.26l-7.22-4.32-14.42,8.31L903,538.33l35.3-19.78Z"/></clipPath><clipPath id="clip-path-8"><path class="cls-1" d="M1307.67,451.87l-4.78-8.34-22.24,11.37,5.12,11.23a53.44,53.44,0,0,1,3.16,8.86l24.2-10.87A64.5,64.5,0,0,0,1307.67,451.87Zm-34.91-1.19-20.59-11.87-1.55,23.51L1285.7,482h0a51.51,51.51,0,0,0-3.56-10.7Zm-46.83-18.52a57.43,57.43,0,0,1-15,6.26l-.29,1.5L1246,459.7l1.58-23.55-14.42-8.31Z"/></clipPath></defs><g class="cls-2"><path class="cls-3" d="M689.56,230.47V42.35A116.62,116.62,0,0,1,806.24-74.21H925c84.79,0,153.52-68.66,153.52-153.36v-53.17"/></g><g class="cls-2"><path class="cls-4" d="M1503.42,157H764.65v25.55h389.88a354.39,354.39,0,0,1,252.09,104.31L1465,345.1,1483,327l-58.33-58.27a380.32,380.32,0,0,0-124-82.74q-4.37-1.82-8.77-3.5h211.44V157Z"/></g><g class="cls-2"><path class="cls-5" d="M1694.27,728.16v69.63c0,42.34-45.87,68.81-82.57,47.63l-422.55-243.7-82.56-47.61a55.14,55.14,0,0,0-55.22.1L39.5,1142.49a55.08,55.08,0,0,1-44.9,4.72l-76.14-25c-45.09-14.82-51.53-75.89-10.51-99.77L826.52,487.58c36.52-21.27,36.42-74-.21-95.14L-162-170.58c-48.8-28.14-28.76-102.68,27.58-102.62l119.68.13a55.17,55.17,0,0,1,27.45,7.36l1654,946.24A54.94,54.94,0,0,1,1694.27,728.16Z"/><path d="M1693.68,660.22V856.86L1104.73,517.18a52.52,52.52,0,0,0-52.67.12L-90.42,1183.12l-215.88-71,1136.2-663c34.77-20.29,34.64-70.53-.23-90.64L-262.82-273.21l340.3.38Z"/><line class="cls-6" x1="1578.64" y1="693.26" x2="-117.53" y2="-285.33"/><line class="cls-7" x1="-313.17" y1="1211.7" x2="788.95" y2="575.84"/><line class="cls-8" x1="793.99" y1="572.94" x2="799.02" y2="570.03"/><polyline class="cls-8" points="799.02 570.03 896.34 513.68 975.35 556.6"/><polygon class="cls-9" points="926.73 420.77 853.68 462.9 838.31 453.82 910.61 412.27 926.73 420.77"/><polygon class="cls-9" points="953.39 435.99 880.34 478.12 864.97 469.04 937.27 427.49 953.39 435.99"/><polygon class="cls-9" points="980.06 451.21 907.01 493.34 891.64 484.26 963.94 442.71 980.06 451.21"/><polygon class="cls-9" points="1006.72 466.43 933.67 508.56 918.3 499.48 990.6 457.93 1006.72 466.43"/><polygon class="cls-9" points="1033.38 481.65 960.33 523.78 944.96 514.7 1017.26 473.15 1033.38 481.65"/><polygon class="cls-9" points="1060.05 496.87 987 539 971.62 529.92 1043.93 488.37 1060.05 496.87"/><line class="cls-10" x1="65.23" y1="-265.19" x2="1694.27" y2="670.84"/><path class="cls-10" d="M1582.2,780.8,1133.41,522.93c-29.76-17.1-57.26-32.22-96.11-5.6L-107.06,1178.44"/><path class="cls-10" d="M-210.15-257.61,839.72,350.13c39.89,23,39.89,80.54,0,103.55L-107.06,999.75"/><path class="cls-11" d="M952.77,498.46l-17.9-9.92,130.06-75a49.67,49.67,0,0,0-.24-86.08L934.88,253.66l16.82-10.61,121.52,69.6a66.78,66.78,0,0,1,.32,115.75Z"/><path class="cls-12" d="M825.77,504.6l-16.93-10.08L988.54,389a164.35,164.35,0,0,1,167.41.41l51.64,31.58-16.33,9.36-44.08-26.23a147.24,147.24,0,0,0-149.94-.37Z"/><polygon class="cls-5" points="1156.63 508.66 914.01 368.73 931.29 358.91 1173.96 498.88 1156.63 508.66"/></g><g class="cls-2"><path class="cls-3" d="M-146.53,666.45H76.9a81.28,81.28,0,0,1,81.32,81.24h0A81.28,81.28,0,0,1,76.9,828.93H-147.72"/></g><g class="cls-2"><path class="cls-3" d="M991.89,977.32V754.12a81.28,81.28,0,0,1,81.32-81.24h0a81.28,81.28,0,0,1,81.32,81.24V978.5"/></g><g class="cls-2"><path class="cls-3" d="M55.78,244.43h0A132.41,132.41,0,0,0-76.69,112.09H-104"/></g><path class="cls-13" d="M962.35,522.3l-.29,9.39-99.53,58.12-.36-17.1a52.2,52.2,0,0,1,1.15-12.11,51.51,51.51,0,0,1,3.56-10.7l9.4-20.59,39.6-22.84,7.22,4.32a57.43,57.43,0,0,0,14.95,6.26c.84.24,1.67.43,2.53.62Z"/><polygon class="cls-14" points="862.52 589.81 962.06 531.69 962.06 522.93 862.52 578.77 862.52 589.81"/><polygon class="cls-15" points="915.87 506.47 884.74 493.07 845.48 513.58 876.27 529.31 915.87 506.47"/><path class="cls-16" d="M845.48,513.58l-6.61,11.53a91.66,91.66,0,0,0-12,41.16l-.19,4.05,35.87,19.49-.24-11.57a76.53,76.53,0,0,1,6.9-33.38l7.1-15.55Z"/><path class="cls-17" d="M846.15,522.15l-4.78,8.34a63.65,63.65,0,0,0-5.45,12.26l24.2,10.87a53.12,53.12,0,0,1,3.16-8.86l5.12-11.23Z"/><path class="cls-17" d="M876.28,529.3l-9.4,20.59c-1.58,3.44-2.12,7-2.91,10.7h-.63l35.08-19.66-1.55-23.51Z"/><path class="cls-17" d="M938.05,517a57.58,57.58,0,0,1-14.95-6.26l-7.22-4.32-14.42,8.31L903,538.33l35.3-19.78Z"/><polygon class="cls-18" points="862.52 578.77 827.06 562.23 826.65 570.31 862.52 589.81 862.52 578.77"/><g class="cls-19"><path class="cls-20" d="M894.65,512.83s-15.1,6.57-12.11,15.53-10.31,28.48-23.62,33.87"/><path class="cls-20" d="M898.42,520.89s-5.72,2.09-4.67,10.6,3.14,15.76-6.88,20.2"/><path class="cls-20" d="M919.9,504.77s-9.85,4.11-7.61,12.66,4.78,18.2-8.07,21.58"/><path class="cls-20" d="M930.22,507.16s-7.21,3.27-4.78,10.27-.47,17.4-5.54,18.87"/><path class="cls-20" d="M857.58,522.15s-9.72,3.07-12.11,12.78-3.44,13.57-12,13.2"/><path class="cls-20" d="M863.32,524.62a13.84,13.84,0,0,0-5.73,10.53c-.6,7.39-.15,19.48-13,20.08"/></g><ellipse class="cls-21" cx="884.71" cy="570.77" rx="12.18" ry="8.42" transform="translate(234.54 1398.89) rotate(-84.69)"/><ellipse class="cls-22" cx="884.71" cy="570.77" rx="4.29" ry="2.96" transform="translate(234.54 1398.89) rotate(-84.69)"/><ellipse class="cls-21" cx="938.35" cy="541.48" rx="12.18" ry="8.42" transform="translate(312.39 1425.72) rotate(-84.69)"/><ellipse class="cls-22" cx="938.35" cy="541.48" rx="4.29" ry="2.96" transform="translate(312.39 1425.72) rotate(-84.69)"/><path class="cls-12" d="M1186.69,443.68l.29,9.39,99.53,58.12.36-17.1a52.2,52.2,0,0,0-1.15-12.11,51.51,51.51,0,0,0-3.56-10.7l-9.4-20.59-39.6-22.84-7.22,4.32a57.43,57.43,0,0,1-15,6.26c-.84.24-1.67.43-2.53.62Z"/><polygon class="cls-13" points="1286.52 511.19 1186.98 453.07 1186.98 444.31 1286.52 500.16 1286.52 511.19"/><polygon class="cls-23" points="1233.16 427.85 1264.3 414.45 1303.56 434.96 1272.76 450.69 1233.16 427.85"/><path class="cls-24" d="M1303.56,435l6.61,11.53a91.66,91.66,0,0,1,12,41.16l.19,4.05-35.87,19.49.24-11.57a76.53,76.53,0,0,0-6.9-33.38l-7.1-15.55Z"/><path class="cls-17" d="M1302.89,443.53l4.78,8.34a63.65,63.65,0,0,1,5.45,12.26L1288.92,475a53.12,53.12,0,0,0-3.16-8.86l-5.12-11.23Z"/><path class="cls-17" d="M1272.76,450.68l9.4,20.59c1.58,3.44,2.12,7,2.91,10.7h.63l-35.08-19.66,1.55-23.51Z"/><path class="cls-17" d="M1211,438.42a57.58,57.58,0,0,0,15-6.26l7.22-4.32,14.42,8.31L1246,459.71l-35.3-19.78Z"/><polygon class="cls-25" points="1286.52 500.16 1321.97 483.61 1322.39 491.69 1286.52 511.19 1286.52 500.16"/><g class="cls-26"><path class="cls-20" d="M1254.38,434.21s15.1,6.57,12.11,15.53,10.31,28.48,23.62,33.87"/><path class="cls-20" d="M1250.61,442.27s5.72,2.09,4.67,10.6-3.14,15.76,6.88,20.2"/><path class="cls-20" d="M1229.14,426.15s9.85,4.11,7.61,12.66-4.78,18.2,8.07,21.58"/><path class="cls-20" d="M1218.81,428.54s7.21,3.27,4.78,10.27.47,17.4,5.54,18.87"/><path class="cls-20" d="M1291.45,443.53s9.72,3.07,12.11,12.78,3.44,13.57,12,13.2"/><path class="cls-20" d="M1285.72,446a13.84,13.84,0,0,1,5.73,10.53c.6,7.39.15,19.48,13,20.08"/></g><ellipse class="cls-21" cx="1264.33" cy="492.1" rx="8.42" ry="12.18" transform="translate(-40.1 119.06) rotate(-5.31)"/><ellipse class="cls-22" cx="1264.33" cy="492.1" rx="2.96" ry="4.29" transform="translate(-40.1 119.06) rotate(-5.31)"/><ellipse class="cls-21" cx="1210.69" cy="462.81" rx="8.42" ry="12.18" transform="translate(-37.62 113.97) rotate(-5.31)"/><ellipse class="cls-22" cx="1210.69" cy="462.81" rx="2.96" ry="4.29" transform="translate(-37.62 113.97) rotate(-5.31)"/><polygon class="cls-27" points="894.5 300.26 871.5 313.79 859.06 321.12 844.29 298.08 854.25 292.34 879.92 277.53 894.5 300.26"/><polygon class="cls-28" points="879.92 277.53 854.25 292.34 844.29 298.08 807.44 277.53 843.69 256.72 879.92 277.53"/><polygon class="cls-29" points="880.73 339.45 879.92 350.89 787.74 296.25 795.61 288.76 807.44 277.53 844.29 298.08 859.06 321.12 880.73 339.45"/><polygon class="cls-28" points="916.36 318.5 916.36 329.61 879.92 350.89 880.73 339.45 916.36 318.5"/><polygon class="cls-14" points="916.36 330.03 916.36 336.29 879.92 357.57 880.73 350.98 916.36 330.03"/><polygon class="cls-18" points="787.74 296.19 787.74 302.46 879.45 357.59 879.92 351.34 787.74 296.19"/><polygon class="cls-17" points="807.44 277.53 821.61 285.43 821.61 300.89 796.89 287.55 807.44 277.53"/><polygon class="cls-17" points="859.06 321.12 826.47 303.52 826.47 288.14 844.29 298.08 859.06 321.12"/><polygon class="cls-30" points="916.36 318.5 880.73 339.45 859.06 321.12 871.58 313.9 894.69 300.57 894.5 300.26 894.69 300.15 916.36 318.5"/><ellipse class="cls-21" cx="854.67" cy="340.62" rx="8.13" ry="11.76" transform="translate(-27.84 80.52) rotate(-5.31)"/><ellipse class="cls-22" cx="854.67" cy="340.62" rx="2.86" ry="4.14" transform="translate(-27.84 80.52) rotate(-5.31)"/><ellipse class="cls-21" cx="807.44" cy="313.59" rx="8.13" ry="11.76" transform="translate(-25.55 76.03) rotate(-5.31)"/><ellipse class="cls-22" cx="807.44" cy="313.59" rx="2.86" ry="4.14" transform="translate(-25.55 76.03) rotate(-5.31)"/></svg>